# xmcd CD database file
#
# Track frame offsets:
#	150
#	14895
#	36420
#	60289
#	82782
#	107995
#	125500
#	144055
#	162915
#	183830
#	208552
#
# Disc length: 2997 seconds
#
# Revision: 0
# Processed by: cddbd v1.5.2PL0 Copyright (c) Steve Scherf et al.
# Submitted via: CDex 1.51
#
DISCID=8c0bb30b
DTITLE=Manhattan Trinity - The Gentle Rain
DYEAR=2006
DGENRE=Jazz
TTITLE0=But not for Me (G.Gershwin)
TTITLE1=Where or When (R.Rogers)
TTITLE2=The Gentle Rain (L.Bonfa)
TTITLE3=Nature Boy (E.AHbez)
TTITLE4=Sunshower (K.Barron)
TTITLE5=You and the Night and the Music (A.Schwartz)
TTITLE6=Nuages (D>Reinhardt)
TTITLE7=Once Upon a Summertime (M.Legrand/E.Barclay)
TTITLE8=Anastasia (A.Newman)
TTITLE9=Reflections (T.Monk)
TTITLE10=When will there be Another You (M.Gordon/H.Warren)
EXTD=YEAR: 2006
EXTT0=
EXTT1=
EXTT2=
EXTT3=
EXTT4=
EXTT5=
EXTT6=
EXTT7=
EXTT8=
EXTT9=
EXTT10=
PLAYORDER=
